<?xml version="1.0" encoding="UTF-8"?>
<svg id="Layer_1" data-name="Layer 1" xmlns="http://www.w3.org/2000/svg" viewBox="0 0 801.33 360">
  <g>
    <path d="m80.65,118.32h45.81l33.14,56.04,32.41-56.04h44.35l-53.61,85.28,55.07,87.47h-45.81l-33.63-57.99-33.63,57.99h-44.35l54.58-87.72-54.34-85.03Z"/>
    <path d="m293.73,118.32v172.75h-40.2V118.32h40.2Z"/>
    <path d="m334.05,273.53c-18.27-17.79-24.37-41.18-24.37-68.71s6.09-51.17,24.37-68.96c14.13-13.89,34.6-20.95,55.07-20.95s40.94,7.06,55.07,20.95c18.28,17.79,24.37,41.42,24.37,68.96s-6.09,50.92-24.37,68.71c-14.13,13.89-34.6,20.95-55.07,20.95s-40.93-7.06-55.07-20.95Zm80.65-23.88c10.48-10.48,13.65-24.85,13.65-44.83s-3.17-34.6-13.65-45.08c-5.85-5.85-14.62-9.25-25.58-9.25s-19.73,3.41-25.58,9.25c-10.48,10.48-13.65,25.1-13.65,45.08s3.17,34.36,13.65,44.83c5.85,5.85,14.62,9.25,25.58,9.25s19.74-3.41,25.58-9.25Z"/>
    <path d="m631.55,118.32v172.75h-45.32l-63.11-117.44v117.44h-38.98V118.32h48.97l59.45,110.62v-110.62h38.99Z"/>
  </g>
  <path d="m678.25,160.9c-9.34-10.9-13.33-20.61-13.33-30.22,0-5.68.6-9.24,1.39-12.52-4.57,9.7-6.15,16.96-6.15,23.8,0,36.23,33.22,40.9,33.22,66.54,0,6.19-3.28,14.6-14.37,30.36,33.41-44.59,41.91-60.63,41.91-71.76,0-31.14-33.09-36.37-33.09-71.39,0-7.99,4.57-17.61,13.12-30.17,0,0-8.13,11.43-12.52,17.54-15.63,21.76-21.68,50.01-10.2,77.84Z"/>
</svg>